# 3ds Max Wavefront OBJ Exporter v0.97b - (c)2007 guruware
# File Created: 12.06.2016 22:25:26

mtllib Wumpa.mtl

#
# object Wumpa
#

v  11.6974 11.0005 1.4755
v  4.9528 9.1898 0.7334
v  9.8419 11.0005 -3.9716
v  14.2756 6.7360 -8.2226
v  17.8042 6.7360 2.1360
v  15.5061 -0.9793 -9.4082
v  19.5025 -0.9793 2.3239
v  12.6724 -9.0657 -6.7093
v  15.6106 -9.0657 1.9160
v  9.0060 -15.1587 -3.1826
v  10.5536 -15.1587 1.3608
v  4.9528 -16.6966 0.7334
v  4.4889 -15.1587 -4.8053
v  4.0969 -9.0657 -9.7900
v  3.8419 -0.9793 -13.5986
v  3.9770 6.7360 -11.9224
v  4.4263 11.0005 -5.9171
v  -9.4464 12.7669 7.3438
v  -15.7217 4.9178 4.5657
v  -10.0136 11.3031 3.5431
v  -1.2736 15.3964 7.2114
v  -2.0280 13.0863 2.1563
v  4.1110 9.8092 0.6177
v  -2.7520 14.2908 -2.6954
v  -10.6260 11.8848 -0.5608
v  2.8722 11.0005 6.9192
v  8.5956 11.0005 6.3223
v  11.9055 6.7360 11.3531
v  1.0215 6.7360 12.4882
v  12.8217 -0.9793 12.7633
v  0.4945 -0.9793 14.0488
v  10.6989 -9.0657 9.5910
v  1.6360 -9.0657 10.5361
v  7.9664 -15.1587 5.4035
v  3.1926 -15.1587 5.9014
v  18.3720 11.6662 11.5457
v  19.4166 3.8611 18.1206
v  15.7761 9.2583 13.6097
v  14.4838 14.3398 4.2853
v  10.4369 11.5307 7.5029
v  5.2462 9.8053 1.5420
v  6.6434 13.2342 10.5191
v  12.7418 10.8722 16.0222
v  -0.4713 11.0005 -2.8961
v  -5.3367 6.7360 -6.1773
v  -6.7068 -0.9793 -7.0917
v  -3.6584 -9.0657 -5.0063
v  0.4038 -15.1587 -2.2855
v  -0.1731 -15.1587 2.4794
v  -4.7536 -9.0657 4.0397
v  -8.1966 -0.9793 5.2125
v  -6.6520 6.7360 4.6864
v  -1.1629 11.0005 2.8166
v  6.1299 4.2140 0.6792
v  4.2288 16.2804 2.5597
v  3.8923 16.6966 -0.4670
v  1.0690 16.3859 0.7076
v  7.6286 11.6343 -7.5761
v  12.5822 13.2342 -5.6236
v  5.5000 9.8061 0.0725
v  3.2635 14.3398 -9.2967
v  10.8021 9.1216 -15.0348
v  7.6070 11.6662 -16.2942
v  12.7787 3.8611 -20.4862
v  14.2988 10.8722 -13.6565
# 65 vertices

vn 0.2803 0.9592 0.0359
vn 0.0071 1.0000 -0.0024
vn 0.2001 0.9592 -0.1995
vn 0.6114 0.5147 -0.6011
vn 0.8512 0.5147 0.1029
vn 0.7096 -0.1069 -0.6964
vn 0.9872 -0.1069 0.1185
vn 0.6053 -0.5273 -0.5963
vn 0.8434 -0.5273 0.1028
vn 0.4234 -0.8037 -0.4180
vn 0.5905 -0.8037 0.0726
vn -0.0058 -1.0000 0.0020
vn -0.0647 -0.8000 -0.5966
vn -0.0902 -0.5196 -0.8497
vn -0.1008 -0.1041 -0.9895
vn -0.0888 0.5099 -0.8556
vn -0.0341 0.9581 -0.2846
vn -0.4667 0.8465 -0.2564
vn -0.7418 0.6695 0.0397
vn -0.5379 0.8426 -0.0256
vn -0.0571 0.9161 -0.3970
vn 0.1060 0.9857 -0.1309
vn 0.4385 0.8876 -0.1409
vn 0.0745 0.9704 0.2298
vn -0.4065 0.8895 0.2088
vn -0.1020 0.9566 0.2731
vn 0.1467 0.9581 0.2462
vn 0.4520 0.5099 0.7319
vn -0.2917 0.5038 0.8131
vn 0.5242 -0.1040 0.8452
vn -0.3345 -0.1005 0.9370
vn 0.4472 -0.5196 0.7280
vn -0.2920 -0.5097 0.8093
vn 0.3129 -0.8000 0.5120
vn -0.2069 -0.7951 0.5700
vn -0.2548 0.7729 0.5811
vn 0.3668 0.7297 0.5771
vn 0.2342 0.8531 0.4663
vn -0.3436 0.8652 0.3651
vn -0.0446 0.9964 0.0727
vn -0.1991 0.9739 -0.1085
vn 0.2795 0.9429 -0.1811
vn 0.5031 0.8606 0.0788
vn -0.2475 0.9566 -0.1540
vn -0.7274 0.5038 -0.4660
vn -0.8370 -0.1005 -0.5379
vn -0.7253 -0.5097 -0.4627
vn -0.5119 -0.7951 -0.3252
vn -0.5767 -0.7930 0.1965
vn -0.8169 -0.5053 0.2783
vn -0.9420 -0.0988 0.3209
vn -0.8192 0.5010 0.2791
vn -0.2780 0.9559 0.0947
vn 0.2404 -0.9704 -0.0218
vn 0.3812 0.4782 0.7912
vn 0.3299 0.6272 -0.7056
vn -0.9213 0.3863 -0.0454
vn 0.1321 0.9911 0.0178
vn -0.2581 0.9574 -0.1296
vn -0.0008 0.9727 0.2323
vn 0.5073 0.8533 0.1205
vn 0.2666 0.8514 -0.4516
vn 0.6366 0.7687 -0.0621
vn 0.3143 0.7375 -0.5977
vn -0.1919 0.8500 -0.4907
# 65 vertex normals

vt 0.6658 0.9012 0.0000
vt 0.6170 1.0000 0.0000
vt 0.5531 0.9249 0.0000
vt 0.5321 0.7820 0.0000
vt 0.6971 0.8058 0.0000
vt 0.5154 0.6086 0.0000
vt 0.6653 0.6221 0.0000
vt 0.5154 0.3842 0.0000
vt 0.6653 0.5267 0.0000
vt 0.5306 0.0785 0.0000
vt 0.6823 0.0785 0.0000
vt 0.7606 0.0244 0.0000
vt 0.5196 1.0000 0.0000
vt 0.3678 0.3131 0.0000
vt 0.0222 0.0084 0.0000
vt 0.0222 0.2196 0.0000
vt 0.4298 0.7536 0.0000
vt 0.0092 0.5514 0.0000
vt 0.0092 0.9811 0.0000
vt 0.4354 0.7649 0.0000
vt 0.3683 0.3205 0.0000
vt 0.9551 0.9249 0.0000
vt 0.9223 1.0000 0.0000
vt 0.8238 0.8808 0.0000
vt 0.8676 0.7413 0.0000
vt 0.9732 0.7820 0.0000
vt 0.8232 0.5679 0.0000
vt 0.9833 0.6086 0.0000
vt 0.8537 0.4589 0.0000
vt 0.9833 0.3842 0.0000
vt 0.8232 0.0785 0.0000
vt 0.9833 0.0785 0.0000
vt 0.7632 1.0000 0.0000
vt 0.0222 0.2195 0.0000
vt 0.0092 0.5515 0.0000
vt 0.6058 1.0000 0.0000
vt 0.6579 0.9012 0.0000
vt 0.6896 0.8058 0.0000
vt 0.6561 0.6221 0.0000
vt 0.6561 0.5267 0.0000
vt 0.6731 0.0785 0.0000
vt 0.8211 0.0785 0.0000
vt 0.8517 0.4589 0.0000
vt 0.8211 0.5679 0.0000
vt 0.8659 0.7413 0.0000
vt 0.8220 0.8808 0.0000
vt 0.7593 1.0000 0.0000
vt 0.4708 0.0146 0.0000
vt 0.4694 0.2002 0.0000
vt 0.9818 0.0785 0.0000
vt 0.9818 0.3842 0.0000
vt 0.9818 0.6086 0.0000
vt 0.9736 0.7820 0.0000
vt 0.9595 0.9249 0.0000
vt 0.9124 1.0000 0.0000
vt 0.0222 0.5510 0.0000
vt 0.4254 0.7649 0.0000
vt 0.0222 0.9811 0.0000
# 58 texture coords

g Wumpa
usemtl mtl0
s 1
f 3/3/3 2/2/2 1/1/1 
f 4/4/4 3/3/3 1/1/1 
f 5/5/5 4/4/4 1/1/1 
f 6/6/6 4/4/4 5/5/5 
f 7/7/7 6/6/6 5/5/5 
f 8/8/8 6/6/6 7/7/7 
f 9/9/9 8/8/8 7/7/7 
f 10/10/10 8/8/8 9/9/9 
f 11/11/11 10/10/10 9/9/9 
f 12/12/12 10/10/10 11/11/11 
f 13/10/13 10/10/10 12/12/12 
f 8/8/8 10/10/10 13/10/13 
f 14/8/14 8/8/8 13/10/13 
f 6/6/6 8/8/8 14/8/14 
f 15/6/15 6/6/6 14/8/14 
f 4/4/4 6/6/6 15/6/15 
f 16/4/16 4/4/4 15/6/15 
f 3/3/3 4/4/4 16/4/16 
f 17/3/17 3/3/3 16/4/16 
f 2/13/2 3/3/3 17/3/17 
f 20/16/20 19/15/19 18/14/18 
f 21/17/21 20/16/20 18/14/18 
f 22/18/22 20/16/20 21/17/21 
f 23/19/23 22/18/22 21/17/21 
f 24/20/24 22/18/22 23/19/23 
f 25/21/25 22/18/22 24/20/24 
f 20/16/20 22/18/22 25/21/25 
f 19/15/19 20/16/20 25/21/25 
f 27/24/27 2/23/2 26/22/26 
f 28/25/28 27/24/27 26/22/26 
f 29/26/29 28/25/28 26/22/26 
f 30/27/30 28/25/28 29/26/29 
f 31/28/31 30/27/30 29/26/29 
f 32/29/32 30/27/30 31/28/31 
f 33/30/33 32/29/32 31/28/31 
f 34/31/34 32/29/32 33/30/33 
f 35/32/35 34/31/34 33/30/33 
f 12/12/12 34/31/34 35/32/35 
f 11/11/11 34/31/34 12/12/12 
f 32/29/32 34/31/34 11/11/11 
f 9/9/9 32/29/32 11/11/11 
f 30/27/30 32/29/32 9/9/9 
f 7/7/7 30/27/30 9/9/9 
f 28/25/28 30/27/30 7/7/7 
f 5/5/5 28/25/28 7/7/7 
f 27/24/27 28/25/28 5/5/5 
f 1/1/1 27/24/27 5/5/5 
f 2/33/2 27/24/27 1/1/1 
f 38/34/38 37/15/37 36/14/36 
f 39/17/39 38/34/38 36/14/36 
f 40/35/40 38/34/38 39/17/39 
f 41/19/41 40/35/40 39/17/39 
f 42/20/42 40/35/40 41/19/41 
f 43/21/43 40/35/40 42/20/42 
f 38/34/38 40/35/40 43/21/43 
f 37/15/37 38/34/38 43/21/43 
f 44/37/44 2/36/2 17/3/17 
f 45/38/45 44/37/44 17/3/17 
f 16/4/16 45/38/45 17/3/17 
f 46/39/46 45/38/45 16/4/16 
f 15/6/15 46/39/46 16/4/16 
f 47/40/47 46/39/46 15/6/15 
f 14/8/14 47/40/47 15/6/15 
f 48/41/48 47/40/47 14/8/14 
f 13/10/13 48/41/48 14/8/14 
f 12/12/12 48/41/48 13/10/13 
f 49/42/49 48/41/48 12/12/12 
f 47/40/47 48/41/48 49/42/49 
f 50/43/50 47/40/47 49/42/49 
f 46/39/46 47/40/47 50/43/50 
f 51/44/51 46/39/46 50/43/50 
f 45/38/45 46/39/46 51/44/51 
f 52/45/52 45/38/45 51/44/51 
f 44/37/44 45/38/45 52/45/52 
f 53/46/53 44/37/44 52/45/52 
f 2/47/2 44/37/44 53/46/53 
f 56/49/56 55/49/55 54/48/54 
f 57/49/57 56/49/56 54/48/54 
f 55/49/55 57/49/57 54/48/54 
f 56/49/56 57/49/57 55/49/55 
f 49/42/49 12/12/12 35/50/35 
f 50/43/50 49/42/49 35/50/35 
f 33/51/33 50/43/50 35/50/35 
f 51/44/51 50/43/50 33/51/33 
f 31/52/31 51/44/51 33/51/33 
f 52/45/52 51/44/51 31/52/31 
f 29/53/29 52/45/52 31/52/31 
f 53/46/53 52/45/52 29/53/29 
f 26/54/26 53/46/53 29/53/29 
f 2/55/2 53/46/53 26/54/26 
f 60/58/60 59/57/59 58/56/58 
f 61/17/61 60/58/60 58/56/58 
f 62/16/62 61/17/61 58/56/58 
f 63/14/63 61/17/61 62/16/62 
f 64/15/64 63/14/63 62/16/62 
f 65/21/65 64/15/64 62/16/62 
f 58/56/58 65/21/65 62/16/62 
f 59/57/59 65/21/65 58/56/58 
# 0 polygons - 98 triangles

